<?xml version="1.0" encoding="UTF-8" standalone="no"?>
<!DOCTYPE svg PUBLIC "-//W3C//DTD SVG 1.1//EN"
 "http://www.w3.org/Graphics/SVG/1.1/DTD/svg11.dtd">
<!-- Generated by graphviz version 14.1.2 (0)
 -->
<!-- Title: tuning_logic Pages: 1 -->
<svg width="880pt" height="393pt"
 viewBox="0.00 0.00 880.00 393.00" xmlns="http://www.w3.org/2000/svg" xmlns:xlink="http://www.w3.org/1999/xlink">
<g id="graph0" class="graph" transform="scale(1 1) rotate(0) translate(4 389)">
<title>tuning_logic</title>
<polygon fill="white" stroke="none" points="-4,4 -4,-389 876,-389 876,4 -4,4"/>
<g id="clust1" class="cluster">
<title>cluster_seg</title>
<polygon fill="none" stroke="#888888" stroke-dasharray="5,2" points="8,-117 8,-270 169.75,-270 169.75,-117 8,-117"/>
<text xml:space="preserve" text-anchor="middle" x="88.88" y="-255.55" font-family="Helvetica,sans-Serif" font-size="11.00">Flight segments</text>
</g>
<g id="clust2" class="cluster">
<title>cluster_metric</title>
<polygon fill="none" stroke="#888888" stroke-dasharray="5,2" points="190.75,-63 190.75,-377 327,-377 327,-63 190.75,-63"/>
<text xml:space="preserve" text-anchor="middle" x="258.88" y="-362.55" font-family="Helvetica,sans-Serif" font-size="11.00">Measured</text>
</g>
<g id="clust3" class="cluster">
<title>cluster_xml</title>
<polygon fill="none" stroke="#888888" stroke-dasharray="5,2" points="437.75,-8 437.75,-310 864,-310 864,-8 437.75,-8"/>
<text xml:space="preserve" text-anchor="middle" x="650.88" y="-295.55" font-family="Helvetica,sans-Serif" font-size="11.00">Airframe XML</text>
</g>
<!-- level -->
<g id="node1" class="node">
<title>level</title>
<path fill="#e8f0fe" stroke="black" d="M149.75,-240.25C149.75,-240.25 28,-240.25 28,-240.25 22,-240.25 16,-234.25 16,-228.25 16,-228.25 16,-203.75 16,-203.75 16,-197.75 22,-191.75 28,-191.75 28,-191.75 149.75,-191.75 149.75,-191.75 155.75,-191.75 161.75,-197.75 161.75,-203.75 161.75,-203.75 161.75,-228.25 161.75,-228.25 161.75,-234.25 155.75,-240.25 149.75,-240.25"/>
<text xml:space="preserve" text-anchor="middle" x="88.88" y="-225.8" font-family="Helvetica,sans-Serif" font-size="11.00">Straight &amp; level</text>
<text xml:space="preserve" text-anchor="middle" x="88.88" y="-212.3" font-family="Helvetica,sans-Serif" font-size="11.00">|roll| &lt; 5°, |vz| &lt; 0.5 m/s,</text>
<text xml:space="preserve" text-anchor="middle" x="88.88" y="-198.8" font-family="Helvetica,sans-Serif" font-size="11.00">|yaw rate| &lt; 5°/s, AUTO1/2</text>
</g>
<!-- m_theta -->
<g id="node3" class="node">
<title>m_theta</title>
<path fill="#fff4d6" stroke="black" d="M292.38,-293.25C292.38,-293.25 225.38,-293.25 225.38,-293.25 219.38,-293.25 213.38,-287.25 213.38,-281.25 213.38,-281.25 213.38,-256.75 213.38,-256.75 213.38,-250.75 219.38,-244.75 225.38,-244.75 225.38,-244.75 292.38,-244.75 292.38,-244.75 298.38,-244.75 304.38,-250.75 304.38,-256.75 304.38,-256.75 304.38,-281.25 304.38,-281.25 304.38,-287.25 298.38,-293.25 292.38,-293.25"/>
<text xml:space="preserve" text-anchor="middle" x="258.88" y="-278.8" font-family="Helvetica,sans-Serif" font-size="11.00">body pitch θ &#160;vs</text>
<text xml:space="preserve" text-anchor="middle" x="258.88" y="-265.3" font-family="Helvetica,sans-Serif" font-size="11.00">desired pitch</text>
<text xml:space="preserve" text-anchor="middle" x="258.88" y="-251.8" font-family="Helvetica,sans-Serif" font-size="11.00">→ trim error Δθ</text>
</g>
<!-- level&#45;&gt;m_theta -->
<g id="edge1" class="edge">
<title>level&#45;&gt;m_theta</title>
<path fill="none" stroke="#555555" d="M162.1,-238.78C175.44,-242.99 189.19,-247.33 201.96,-251.36"/>
<polygon fill="#555555" stroke="#555555" points="200.86,-254.68 211.45,-254.35 202.97,-248.01 200.86,-254.68"/>
</g>
<!-- m_elev -->
<g id="node4" class="node">
<title>m_elev</title>
<path fill="#fff4d6" stroke="black" d="M294.25,-347C294.25,-347 223.5,-347 223.5,-347 217.5,-347 211.5,-341 211.5,-335 211.5,-335 211.5,-323 211.5,-323 211.5,-317 217.5,-311 223.5,-311 223.5,-311 294.25,-311 294.25,-311 300.25,-311 306.25,-317 306.25,-323 306.25,-323 306.25,-335 306.25,-335 306.25,-341 300.25,-347 294.25,-347"/>
<text xml:space="preserve" text-anchor="middle" x="258.88" y="-332.05" font-family="Helvetica,sans-Serif" font-size="11.00">steady elevator</text>
<text xml:space="preserve" text-anchor="middle" x="258.88" y="-318.55" font-family="Helvetica,sans-Serif" font-size="11.00">command (pprz)</text>
</g>
<!-- level&#45;&gt;m_elev -->
<g id="edge2" class="edge">
<title>level&#45;&gt;m_elev</title>
<path fill="none" stroke="#555555" d="M114.22,-240.74C133.63,-259.43 162.2,-284.72 190.75,-302 194.02,-303.98 197.46,-305.87 200.98,-307.66"/>
<polygon fill="#555555" stroke="#555555" points="199.17,-310.67 209.7,-311.81 202.17,-304.35 199.17,-310.67"/>
</g>
<!-- m_v -->
<g id="node7" class="node">
<title>m_v</title>
<path fill="#fff4d6" stroke="black" d="M307,-227C307,-227 210.75,-227 210.75,-227 204.75,-227 198.75,-221 198.75,-215 198.75,-215 198.75,-203 198.75,-203 198.75,-197 204.75,-191 210.75,-191 210.75,-191 307,-191 307,-191 313,-191 319,-197 319,-203 319,-203 319,-215 319,-215 319,-221 313,-227 307,-227"/>
<text xml:space="preserve" text-anchor="middle" x="258.88" y="-212.05" font-family="Helvetica,sans-Serif" font-size="11.00">mean airspeed V</text>
<text xml:space="preserve" text-anchor="middle" x="258.88" y="-198.55" font-family="Helvetica,sans-Serif" font-size="11.00">(AIR_DATA.airspeed)</text>
</g>
<!-- level&#45;&gt;m_v -->
<g id="edge3" class="edge">
<title>level&#45;&gt;m_v</title>
<path fill="none" stroke="#555555" d="M162.1,-212.99C170.32,-212.65 178.69,-212.3 186.9,-211.96"/>
<polygon fill="#555555" stroke="#555555" points="186.99,-215.46 196.84,-211.54 186.7,-208.46 186.99,-215.46"/>
</g>
<!-- turn -->
<g id="node2" class="node">
<title>turn</title>
<path fill="#e8f0fe" stroke="black" d="M136.62,-173.25C136.62,-173.25 41.12,-173.25 41.12,-173.25 35.12,-173.25 29.12,-167.25 29.12,-161.25 29.12,-161.25 29.12,-136.75 29.12,-136.75 29.12,-130.75 35.12,-124.75 41.12,-124.75 41.12,-124.75 136.62,-124.75 136.62,-124.75 142.62,-124.75 148.62,-130.75 148.62,-136.75 148.62,-136.75 148.62,-161.25 148.62,-161.25 148.62,-167.25 142.62,-173.25 136.62,-173.25"/>
<text xml:space="preserve" text-anchor="middle" x="88.88" y="-158.8" font-family="Helvetica,sans-Serif" font-size="11.00">Banked turns</text>
<text xml:space="preserve" text-anchor="middle" x="88.88" y="-145.3" font-family="Helvetica,sans-Serif" font-size="11.00">|roll| &gt; 15°, AUTO1/2,</text>
<text xml:space="preserve" text-anchor="middle" x="88.88" y="-131.8" font-family="Helvetica,sans-Serif" font-size="11.00">airspeed &gt; 7 m/s</text>
</g>
<!-- m_yaw -->
<g id="node5" class="node">
<title>m_yaw</title>
<path fill="#fff4d6" stroke="black" d="M291.25,-107C291.25,-107 226.5,-107 226.5,-107 220.5,-107 214.5,-101 214.5,-95 214.5,-95 214.5,-83 214.5,-83 214.5,-77 220.5,-71 226.5,-71 226.5,-71 291.25,-71 291.25,-71 297.25,-71 303.25,-77 303.25,-83 303.25,-83 303.25,-95 303.25,-95 303.25,-101 297.25,-107 291.25,-107"/>
<text xml:space="preserve" text-anchor="middle" x="258.88" y="-92.05" font-family="Helvetica,sans-Serif" font-size="11.00">pilot rudder per</text>
<text xml:space="preserve" text-anchor="middle" x="258.88" y="-78.55" font-family="Helvetica,sans-Serif" font-size="11.00">degree of bank</text>
</g>
<!-- turn&#45;&gt;m_yaw -->
<g id="edge4" class="edge">
<title>turn&#45;&gt;m_yaw</title>
<path fill="none" stroke="#555555" d="M149.11,-127.85C166.86,-121.5 186.25,-114.58 203.66,-108.36"/>
<polygon fill="#555555" stroke="#555555" points="204.56,-111.76 212.8,-105.1 202.2,-105.17 204.56,-111.76"/>
</g>
<!-- m_rate -->
<g id="node6" class="node">
<title>m_rate</title>
<path fill="#fff4d6" stroke="black" d="M305.12,-173.25C305.12,-173.25 212.62,-173.25 212.62,-173.25 206.62,-173.25 200.62,-167.25 200.62,-161.25 200.62,-161.25 200.62,-136.75 200.62,-136.75 200.62,-130.75 206.62,-124.75 212.62,-124.75 212.62,-124.75 305.12,-124.75 305.12,-124.75 311.12,-124.75 317.12,-130.75 317.12,-136.75 317.12,-136.75 317.12,-161.25 317.12,-161.25 317.12,-167.25 311.12,-173.25 305.12,-173.25"/>
<text xml:space="preserve" text-anchor="middle" x="258.88" y="-158.8" font-family="Helvetica,sans-Serif" font-size="11.00">achieved yaw rate vs</text>
<text xml:space="preserve" text-anchor="middle" x="258.88" y="-145.3" font-family="Helvetica,sans-Serif" font-size="11.00">g·tan(φ)/V</text>
<text xml:space="preserve" text-anchor="middle" x="258.88" y="-131.8" font-family="Helvetica,sans-Serif" font-size="11.00">→ coordination ratio</text>
</g>
<!-- turn&#45;&gt;m_rate -->
<g id="edge5" class="edge">
<title>turn&#45;&gt;m_rate</title>
<path fill="none" stroke="#555555" d="M149.11,-149C161.97,-149 175.68,-149 188.87,-149"/>
<polygon fill="#555555" stroke="#555555" points="188.8,-152.5 198.8,-149 188.8,-145.5 188.8,-152.5"/>
</g>
<!-- x_neutral -->
<g id="node8" class="node">
<title>x_neutral</title>
<path fill="#e6f7e6" stroke="black" d="M622.25,-280C622.25,-280 457.75,-280 457.75,-280 451.75,-280 445.75,-274 445.75,-268 445.75,-268 445.75,-256 445.75,-256 445.75,-250 451.75,-244 457.75,-244 457.75,-244 622.25,-244 622.25,-244 628.25,-244 634.25,-250 634.25,-256 634.25,-256 634.25,-268 634.25,-268 634.25,-274 628.25,-280 622.25,-280"/>
<text xml:space="preserve" text-anchor="middle" x="540" y="-265.05" font-family="Helvetica,sans-Serif" font-size="11.00">INS_PITCH_NEUTRAL_DEFAULT</text>
<text xml:space="preserve" text-anchor="middle" x="540" y="-251.55" font-family="Helvetica,sans-Serif" font-size="11.00">+= Δθ &#160;(clamped ±5°)</text>
</g>
<!-- m_theta&#45;&gt;x_neutral -->
<g id="edge6" class="edge">
<title>m_theta&#45;&gt;x_neutral</title>
<path fill="none" stroke="#555555" d="M304.72,-267.88C339.6,-267 389.42,-265.75 434.16,-264.63"/>
<polygon fill="#555555" stroke="#555555" points="433.99,-268.13 443.89,-264.39 433.81,-261.14 433.99,-268.13"/>
</g>
<!-- x_cruise -->
<g id="node9" class="node">
<title>x_cruise</title>
<path fill="#e6f7e6" stroke="black" d="M614.75,-226C614.75,-226 465.25,-226 465.25,-226 459.25,-226 453.25,-220 453.25,-214 453.25,-214 453.25,-202 453.25,-202 453.25,-196 459.25,-190 465.25,-190 465.25,-190 614.75,-190 614.75,-190 620.75,-190 626.75,-196 626.75,-202 626.75,-202 626.75,-214 626.75,-214 626.75,-220 620.75,-226 614.75,-226"/>
<text xml:space="preserve" text-anchor="middle" x="540" y="-211.05" font-family="Helvetica,sans-Serif" font-size="11.00">V_CTL_AUTO_THROTTLE_</text>
<text xml:space="preserve" text-anchor="middle" x="540" y="-197.55" font-family="Helvetica,sans-Serif" font-size="11.00">NOMINAL_CRUISE_PITCH = θ</text>
</g>
<!-- m_theta&#45;&gt;x_cruise -->
<g id="edge8" class="edge">
<title>m_theta&#45;&gt;x_cruise</title>
<path fill="none" stroke="#555555" d="M304.72,-259.2C342.03,-251.05 396.43,-239.16 443.43,-228.89"/>
<polygon fill="#555555" stroke="#555555" points="444.07,-232.33 453.1,-226.77 442.58,-225.49 444.07,-232.33"/>
</g>
<!-- m_elev&#45;&gt;x_neutral -->
<g id="edge7" class="edge">
<title>m_elev&#45;&gt;x_neutral</title>
<path fill="none" stroke="#555555" stroke-dasharray="1,5" d="M306.59,-317.79C345.9,-308.35 403.19,-294.6 451.05,-283.11"/>
<polygon fill="#555555" stroke="#555555" points="451.67,-286.56 460.58,-280.82 450.04,-279.75 451.67,-286.56"/>
<text xml:space="preserve" text-anchor="middle" x="382.38" y="-311.15" font-family="Helvetica,sans-Serif" font-size="9.00">reported</text>
</g>
<!-- x_mix -->
<g id="node10" class="node">
<title>x_mix</title>
<path fill="#e6f7e6" stroke="black" d="M612.5,-118C612.5,-118 467.5,-118 467.5,-118 461.5,-118 455.5,-112 455.5,-106 455.5,-106 455.5,-94 455.5,-94 455.5,-88 461.5,-82 467.5,-82 467.5,-82 612.5,-82 612.5,-82 618.5,-82 624.5,-88 624.5,-94 624.5,-94 624.5,-106 624.5,-106 624.5,-112 618.5,-118 612.5,-118"/>
<text xml:space="preserve" text-anchor="middle" x="540" y="-103.05" font-family="Helvetica,sans-Serif" font-size="11.00">MIXER</text>
<text xml:space="preserve" text-anchor="middle" x="540" y="-89.55" font-family="Helvetica,sans-Serif" font-size="11.00">RUDDERVONS_OF_ROLL = k</text>
</g>
<!-- m_yaw&#45;&gt;x_mix -->
<g id="edge9" class="edge">
<title>m_yaw&#45;&gt;x_mix</title>
<path fill="none" stroke="#555555" d="M303.72,-89.8C337.6,-90.5 385.66,-91.71 427.75,-93.5 433.03,-93.72 438.45,-93.98 443.92,-94.24"/>
<polygon fill="#555555" stroke="#555555" points="443.51,-97.73 453.67,-94.74 443.86,-90.74 443.51,-97.73"/>
<text xml:space="preserve" text-anchor="middle" x="382.38" y="-95.45" font-family="Helvetica,sans-Serif" font-size="9.00">k = pprz/deg · 45/9600</text>
</g>
<!-- x_auto -->
<g id="node12" class="node">
<title>x_auto</title>
<path fill="#e6f7e6" stroke="black" d="M604.25,-172C604.25,-172 475.75,-172 475.75,-172 469.75,-172 463.75,-166 463.75,-160 463.75,-160 463.75,-148 463.75,-148 463.75,-142 469.75,-136 475.75,-136 475.75,-136 604.25,-136 604.25,-136 610.25,-136 616.25,-142 616.25,-148 616.25,-148 616.25,-160 616.25,-160 616.25,-166 610.25,-172 604.25,-172"/>
<text xml:space="preserve" text-anchor="middle" x="540" y="-157.05" font-family="Helvetica,sans-Serif" font-size="11.00">auto_rc_commands</text>
<text xml:space="preserve" text-anchor="middle" x="540" y="-143.55" font-family="Helvetica,sans-Serif" font-size="11.00">YAW: @YAW*0.9 → @YAW</text>
</g>
<!-- m_yaw&#45;&gt;x_auto -->
<g id="edge12" class="edge">
<title>m_yaw&#45;&gt;x_auto</title>
<path fill="none" stroke="#555555" d="M303.49,-99.16C343.19,-108.4 402.96,-122.32 452.36,-133.82"/>
<polygon fill="#555555" stroke="#555555" points="451.37,-137.19 461.9,-136.05 452.95,-130.37 451.37,-137.19"/>
</g>
<!-- m_rate&#45;&gt;x_auto -->
<g id="edge11" class="edge">
<title>m_rate&#45;&gt;x_auto</title>
<path fill="none" stroke="#555555" stroke-dasharray="1,5" d="M317.37,-150.03C356.2,-150.73 408.18,-151.66 452.04,-152.44"/>
<polygon fill="#555555" stroke="#555555" points="451.72,-155.94 461.78,-152.62 451.85,-148.94 451.72,-155.94"/>
<text xml:space="preserve" text-anchor="middle" x="382.38" y="-153.9" font-family="Helvetica,sans-Serif" font-size="9.00">rudder saturating</text>
</g>
<!-- x_radius -->
<g id="node13" class="node">
<title>x_radius</title>
<path fill="#e6f7e6" stroke="black" d="M619.25,-64.25C619.25,-64.25 460.75,-64.25 460.75,-64.25 454.75,-64.25 448.75,-58.25 448.75,-52.25 448.75,-52.25 448.75,-27.75 448.75,-27.75 448.75,-21.75 454.75,-15.75 460.75,-15.75 460.75,-15.75 619.25,-15.75 619.25,-15.75 625.25,-15.75 631.25,-21.75 631.25,-27.75 631.25,-27.75 631.25,-52.25 631.25,-52.25 631.25,-58.25 625.25,-64.25 619.25,-64.25"/>
<text xml:space="preserve" text-anchor="middle" x="540" y="-49.8" font-family="Helvetica,sans-Serif" font-size="11.00">MISC</text>
<text xml:space="preserve" text-anchor="middle" x="540" y="-36.3" font-family="Helvetica,sans-Serif" font-size="11.00">MIN_CIRCLE_RADIUS,</text>
<text xml:space="preserve" text-anchor="middle" x="540" y="-22.8" font-family="Helvetica,sans-Serif" font-size="11.00">LANDING_CIRCLE_RADIUS = R</text>
</g>
<!-- m_v&#45;&gt;x_radius -->
<g id="edge13" class="edge">
<title>m_v&#45;&gt;x_radius</title>
<path fill="none" stroke="#555555" d="M319.12,-209.84C355.93,-206.99 401.17,-196.71 427.75,-166 454.96,-134.57 411.56,-105.29 437.75,-73 438.54,-72.03 439.35,-71.09 440.19,-70.18"/>
<polygon fill="#555555" stroke="#555555" points="442.28,-73.01 447.32,-63.69 437.57,-67.83 442.28,-73.01"/>
</g>
<!-- x_laws -->
<g id="node11" class="node">
<title>x_laws</title>
<path fill="#e6f7e6" stroke="black" d="M844,-124.25C844,-124.25 683.25,-124.25 683.25,-124.25 677.25,-124.25 671.25,-118.25 671.25,-112.25 671.25,-112.25 671.25,-87.75 671.25,-87.75 671.25,-81.75 677.25,-75.75 683.25,-75.75 683.25,-75.75 844,-75.75 844,-75.75 850,-75.75 856,-81.75 856,-87.75 856,-87.75 856,-112.25 856,-112.25 856,-118.25 850,-124.25 844,-124.25"/>
<text xml:space="preserve" text-anchor="middle" x="763.62" y="-109.8" font-family="Helvetica,sans-Serif" font-size="11.00">command_laws</text>
<text xml:space="preserve" text-anchor="middle" x="763.62" y="-96.3" font-family="Helvetica,sans-Serif" font-size="11.00">$ruddervons = @YAW + k·@ROLL</text>
<text xml:space="preserve" text-anchor="middle" x="763.62" y="-82.8" font-family="Helvetica,sans-Serif" font-size="11.00">S_RUDDERVATOR_L/R use it</text>
</g>
<!-- x_mix&#45;&gt;x_laws -->
<g id="edge10" class="edge">
<title>x_mix&#45;&gt;x_laws</title>
<path fill="none" stroke="#555555" d="M624.79,-100C636.21,-100 648.05,-100 659.76,-100"/>
<polygon fill="#555555" stroke="#555555" points="659.43,-103.5 669.43,-100 659.43,-96.5 659.43,-103.5"/>
</g>
<!-- target -->
<g id="node14" class="node">
<title>target</title>
<polygon fill="#f3e8ff" stroke="black" points="312.62,-53.25 199.12,-53.25 199.12,-4.75 318.62,-4.75 318.62,-47.25 312.62,-53.25"/>
<polyline fill="none" stroke="black" points="312.62,-53.25 312.62,-47.25"/>
<polyline fill="none" stroke="black" points="318.62,-47.25 312.62,-47.25"/>
<text xml:space="preserve" text-anchor="middle" x="258.88" y="-38.8" font-family="Helvetica,sans-Serif" font-size="11.00">&#45;&#45;turn&#45;radius R</text>
<text xml:space="preserve" text-anchor="middle" x="258.88" y="-25.3" font-family="Helvetica,sans-Serif" font-size="11.00">(CLI, default 30 m)</text>
<text xml:space="preserve" text-anchor="middle" x="258.88" y="-11.8" font-family="Helvetica,sans-Serif" font-size="11.00">bank = atan(V²/(g·R))</text>
</g>
<!-- target&#45;&gt;x_radius -->
<g id="edge14" class="edge">
<title>target&#45;&gt;x_radius</title>
<path fill="none" stroke="#555555" d="M319.07,-31.33C353.3,-32.68 397.31,-34.42 436.96,-35.98"/>
<polygon fill="#555555" stroke="#555555" points="436.64,-39.47 446.77,-36.37 436.92,-32.47 436.64,-39.47"/>
</g>
</g>
</svg>
