<?xml version='1.0' encoding='utf-8'?>
<svg xmlns="http://www.w3.org/2000/svg" viewBox="0 0 880 680" width="880" height="680">
  <title>Give the board the aircraft's axes.</title>
  <defs>
    <marker id="arrow" markerWidth="8" markerHeight="8" refX="7" refY="3" orient="auto" markerUnits="strokeWidth">
      <path d="M0,0 L0,6 L7,3 Z" fill="#222222" />
    </marker>
  </defs>
  <rect x="0" y="0" width="880" height="680" fill="#ffffff" stroke="#dedede" stroke-width="2" />
  <rect x="32" y="32" width="6" height="54" fill="#ca8a04" stroke="none" stroke-width="2" />
  <text x="54" y="54" fill="#111111" font-size="26" font-family="DejaVu Sans" font-weight="bold">Give the board the aircraft's axes.</text>
  <text x="54" y="83" fill="#555555" font-size="16" font-family="DejaVu Sans" font-weight="normal">Top view / board and aircraft body reference must be level</text>
  <rect x="89.0" y="199.0" width="378" height="336" fill="#d1d5db" stroke="#111111" stroke-width="2" />
  <rect x="110" y="220" width="42" height="42" fill="#1f2937" stroke="none" stroke-width="2" />
  <rect x="152" y="220" width="42" height="42" fill="#f3f4f6" stroke="none" stroke-width="2" />
  <rect x="194" y="220" width="42" height="42" fill="#1f2937" stroke="none" stroke-width="2" />
  <rect x="236" y="220" width="42" height="42" fill="#f3f4f6" stroke="none" stroke-width="2" />
  <rect x="278" y="220" width="42" height="42" fill="#1f2937" stroke="none" stroke-width="2" />
  <rect x="320" y="220" width="42" height="42" fill="#f3f4f6" stroke="none" stroke-width="2" />
  <rect x="362" y="220" width="42" height="42" fill="#1f2937" stroke="none" stroke-width="2" />
  <rect x="404" y="220" width="42" height="42" fill="#f3f4f6" stroke="none" stroke-width="2" />
  <rect x="110" y="262" width="42" height="42" fill="#f3f4f6" stroke="none" stroke-width="2" />
  <rect x="152" y="262" width="42" height="42" fill="#1f2937" stroke="none" stroke-width="2" />
  <rect x="194" y="262" width="42" height="42" fill="#f3f4f6" stroke="none" stroke-width="2" />
  <rect x="236" y="262" width="42" height="42" fill="#1f2937" stroke="none" stroke-width="2" />
  <rect x="278" y="262" width="42" height="42" fill="#f3f4f6" stroke="none" stroke-width="2" />
  <rect x="320" y="262" width="42" height="42" fill="#1f2937" stroke="none" stroke-width="2" />
  <rect x="362" y="262" width="42" height="42" fill="#f3f4f6" stroke="none" stroke-width="2" />
  <rect x="404" y="262" width="42" height="42" fill="#1f2937" stroke="none" stroke-width="2" />
  <rect x="110" y="304" width="42" height="42" fill="#1f2937" stroke="none" stroke-width="2" />
  <rect x="152" y="304" width="42" height="42" fill="#f3f4f6" stroke="none" stroke-width="2" />
  <rect x="194" y="304" width="42" height="42" fill="#1f2937" stroke="none" stroke-width="2" />
  <rect x="236" y="304" width="42" height="42" fill="#f3f4f6" stroke="none" stroke-width="2" />
  <rect x="278" y="304" width="42" height="42" fill="#1f2937" stroke="none" stroke-width="2" />
  <rect x="320" y="304" width="42" height="42" fill="#f3f4f6" stroke="none" stroke-width="2" />
  <rect x="362" y="304" width="42" height="42" fill="#1f2937" stroke="none" stroke-width="2" />
  <rect x="404" y="304" width="42" height="42" fill="#f3f4f6" stroke="none" stroke-width="2" />
  <rect x="110" y="346" width="42" height="42" fill="#f3f4f6" stroke="none" stroke-width="2" />
  <rect x="152" y="346" width="42" height="42" fill="#1f2937" stroke="none" stroke-width="2" />
  <rect x="194" y="346" width="42" height="42" fill="#f3f4f6" stroke="none" stroke-width="2" />
  <rect x="236" y="346" width="42" height="42" fill="#1f2937" stroke="none" stroke-width="2" />
  <rect x="278" y="346" width="42" height="42" fill="#f3f4f6" stroke="none" stroke-width="2" />
  <rect x="320" y="346" width="42" height="42" fill="#1f2937" stroke="none" stroke-width="2" />
  <rect x="362" y="346" width="42" height="42" fill="#f3f4f6" stroke="none" stroke-width="2" />
  <rect x="404" y="346" width="42" height="42" fill="#1f2937" stroke="none" stroke-width="2" />
  <rect x="110" y="388" width="42" height="42" fill="#1f2937" stroke="none" stroke-width="2" />
  <rect x="152" y="388" width="42" height="42" fill="#f3f4f6" stroke="none" stroke-width="2" />
  <rect x="194" y="388" width="42" height="42" fill="#1f2937" stroke="none" stroke-width="2" />
  <rect x="236" y="388" width="42" height="42" fill="#f3f4f6" stroke="none" stroke-width="2" />
  <rect x="278" y="388" width="42" height="42" fill="#1f2937" stroke="none" stroke-width="2" />
  <rect x="320" y="388" width="42" height="42" fill="#f3f4f6" stroke="none" stroke-width="2" />
  <rect x="362" y="388" width="42" height="42" fill="#1f2937" stroke="none" stroke-width="2" />
  <rect x="404" y="388" width="42" height="42" fill="#f3f4f6" stroke="none" stroke-width="2" />
  <rect x="110" y="430" width="42" height="42" fill="#f3f4f6" stroke="none" stroke-width="2" />
  <rect x="152" y="430" width="42" height="42" fill="#1f2937" stroke="none" stroke-width="2" />
  <rect x="194" y="430" width="42" height="42" fill="#f3f4f6" stroke="none" stroke-width="2" />
  <rect x="236" y="430" width="42" height="42" fill="#1f2937" stroke="none" stroke-width="2" />
  <rect x="278" y="430" width="42" height="42" fill="#f3f4f6" stroke="none" stroke-width="2" />
  <rect x="320" y="430" width="42" height="42" fill="#1f2937" stroke="none" stroke-width="2" />
  <rect x="362" y="430" width="42" height="42" fill="#f3f4f6" stroke="none" stroke-width="2" />
  <rect x="404" y="430" width="42" height="42" fill="#1f2937" stroke="none" stroke-width="2" />
  <rect x="110" y="472" width="42" height="42" fill="#1f2937" stroke="none" stroke-width="2" />
  <rect x="152" y="472" width="42" height="42" fill="#f3f4f6" stroke="none" stroke-width="2" />
  <rect x="194" y="472" width="42" height="42" fill="#1f2937" stroke="none" stroke-width="2" />
  <rect x="236" y="472" width="42" height="42" fill="#f3f4f6" stroke="none" stroke-width="2" />
  <rect x="278" y="472" width="42" height="42" fill="#1f2937" stroke="none" stroke-width="2" />
  <rect x="320" y="472" width="42" height="42" fill="#f3f4f6" stroke="none" stroke-width="2" />
  <rect x="362" y="472" width="42" height="42" fill="#1f2937" stroke="none" stroke-width="2" />
  <rect x="404" y="472" width="42" height="42" fill="#f3f4f6" stroke="none" stroke-width="2" />
  <circle cx="152" cy="262" r="5" fill="#facc15" stroke="#854d0e" stroke-width="1.5" />
  <circle cx="194" cy="262" r="5" fill="#facc15" stroke="#854d0e" stroke-width="1.5" />
  <circle cx="236" cy="262" r="5" fill="#facc15" stroke="#854d0e" stroke-width="1.5" />
  <circle cx="278" cy="262" r="5" fill="#facc15" stroke="#854d0e" stroke-width="1.5" />
  <circle cx="320" cy="262" r="5" fill="#facc15" stroke="#854d0e" stroke-width="1.5" />
  <circle cx="362" cy="262" r="5" fill="#facc15" stroke="#854d0e" stroke-width="1.5" />
  <circle cx="404" cy="262" r="5" fill="#facc15" stroke="#854d0e" stroke-width="1.5" />
  <circle cx="152" cy="304" r="5" fill="#facc15" stroke="#854d0e" stroke-width="1.5" />
  <circle cx="194" cy="304" r="5" fill="#facc15" stroke="#854d0e" stroke-width="1.5" />
  <circle cx="236" cy="304" r="5" fill="#facc15" stroke="#854d0e" stroke-width="1.5" />
  <circle cx="278" cy="304" r="5" fill="#facc15" stroke="#854d0e" stroke-width="1.5" />
  <circle cx="320" cy="304" r="5" fill="#facc15" stroke="#854d0e" stroke-width="1.5" />
  <circle cx="362" cy="304" r="5" fill="#facc15" stroke="#854d0e" stroke-width="1.5" />
  <circle cx="404" cy="304" r="5" fill="#facc15" stroke="#854d0e" stroke-width="1.5" />
  <circle cx="152" cy="346" r="5" fill="#facc15" stroke="#854d0e" stroke-width="1.5" />
  <circle cx="194" cy="346" r="5" fill="#facc15" stroke="#854d0e" stroke-width="1.5" />
  <circle cx="236" cy="346" r="5" fill="#facc15" stroke="#854d0e" stroke-width="1.5" />
  <circle cx="278" cy="346" r="5" fill="#facc15" stroke="#854d0e" stroke-width="1.5" />
  <circle cx="320" cy="346" r="5" fill="#facc15" stroke="#854d0e" stroke-width="1.5" />
  <circle cx="362" cy="346" r="5" fill="#facc15" stroke="#854d0e" stroke-width="1.5" />
  <circle cx="404" cy="346" r="5" fill="#facc15" stroke="#854d0e" stroke-width="1.5" />
  <circle cx="152" cy="388" r="5" fill="#facc15" stroke="#854d0e" stroke-width="1.5" />
  <circle cx="194" cy="388" r="5" fill="#facc15" stroke="#854d0e" stroke-width="1.5" />
  <circle cx="236" cy="388" r="5" fill="#facc15" stroke="#854d0e" stroke-width="1.5" />
  <circle cx="278" cy="388" r="5" fill="#facc15" stroke="#854d0e" stroke-width="1.5" />
  <circle cx="320" cy="388" r="5" fill="#facc15" stroke="#854d0e" stroke-width="1.5" />
  <circle cx="362" cy="388" r="5" fill="#facc15" stroke="#854d0e" stroke-width="1.5" />
  <circle cx="404" cy="388" r="5" fill="#facc15" stroke="#854d0e" stroke-width="1.5" />
  <circle cx="152" cy="430" r="5" fill="#facc15" stroke="#854d0e" stroke-width="1.5" />
  <circle cx="194" cy="430" r="5" fill="#facc15" stroke="#854d0e" stroke-width="1.5" />
  <circle cx="236" cy="430" r="5" fill="#facc15" stroke="#854d0e" stroke-width="1.5" />
  <circle cx="278" cy="430" r="5" fill="#facc15" stroke="#854d0e" stroke-width="1.5" />
  <circle cx="320" cy="430" r="5" fill="#facc15" stroke="#854d0e" stroke-width="1.5" />
  <circle cx="362" cy="430" r="5" fill="#facc15" stroke="#854d0e" stroke-width="1.5" />
  <circle cx="404" cy="430" r="5" fill="#facc15" stroke="#854d0e" stroke-width="1.5" />
  <circle cx="152" cy="472" r="5" fill="#facc15" stroke="#854d0e" stroke-width="1.5" />
  <circle cx="194" cy="472" r="5" fill="#facc15" stroke="#854d0e" stroke-width="1.5" />
  <circle cx="236" cy="472" r="5" fill="#facc15" stroke="#854d0e" stroke-width="1.5" />
  <circle cx="278" cy="472" r="5" fill="#facc15" stroke="#854d0e" stroke-width="1.5" />
  <circle cx="320" cy="472" r="5" fill="#facc15" stroke="#854d0e" stroke-width="1.5" />
  <circle cx="362" cy="472" r="5" fill="#facc15" stroke="#854d0e" stroke-width="1.5" />
  <circle cx="404" cy="472" r="5" fill="#facc15" stroke="#854d0e" stroke-width="1.5" />
  <line x1="480" y1="420" x2="480" y2="158" stroke="#222222" stroke-width="3.5" marker-end="url(#arrow)" />
  <text x="505" y="172" fill="#222222" font-size="22" font-family="DejaVu Sans" font-weight="bold">FORWARD / nose</text>
  <line x1="450" y1="530" x2="745" y2="530" stroke="#222222" stroke-width="3.5" marker-end="url(#arrow)" />
  <text x="545" y="567" fill="#222222" font-size="22" font-family="DejaVu Sans" font-weight="bold">BODY RIGHT</text>
  <circle cx="152" cy="262" r="15" fill="#fef08a" stroke="#ca8a04" stroke-width="2.5" />
  <text x="146" y="268" fill="#111111" font-size="18" font-family="DejaVu Sans" font-weight="bold">0</text>
  <circle cx="194" cy="262" r="15" fill="#fef08a" stroke="#ca8a04" stroke-width="2.5" />
  <text x="188" y="268" fill="#111111" font-size="18" font-family="DejaVu Sans" font-weight="bold">1</text>
  <circle cx="152" cy="304" r="15" fill="#fef08a" stroke="#ca8a04" stroke-width="2.5" />
  <text x="146" y="310" fill="#111111" font-size="18" font-family="DejaVu Sans" font-weight="bold">7</text>
  <text x="90" y="162" fill="#111111" font-size="18" font-family="DejaVu Sans" font-weight="bold">Near nose</text>
  <text x="92" y="564" fill="#111111" font-size="18" font-family="DejaVu Sans" font-weight="bold">Rows increase toward tail</text>
  <text x="535" y="245" fill="#111111" font-size="21" font-family="DejaVu Sans" font-weight="bold">0: nose-side, left</text>
  <text x="535" y="285" fill="#111111" font-size="20" font-family="DejaVu Sans" font-weight="normal">0 to 1: body right</text>
  <text x="535" y="325" fill="#111111" font-size="20" font-family="DejaVu Sans" font-weight="normal">0 to 7: toward tail</text>
  <text x="535" y="386" fill="#555555" font-size="17" font-family="DejaVu Sans" font-weight="normal">DOWN goes into this page.</text>
  <text x="535" y="425" fill="#555555" font-size="17" font-family="DejaVu Sans" font-weight="normal">Mark zero on the border,</text>
  <text x="535" y="452" fill="#555555" font-size="17" font-family="DejaVu Sans" font-weight="normal">not on a crossing.</text>
  <text x="40" y="623" fill="#d97706" font-size="21" font-family="DejaVu Sans" font-weight="bold">Confirm labels on the saved preview before trusting the rotation.</text>
  <text x="40" y="658" fill="#555555" font-size="17" font-family="DejaVu Sans" font-weight="normal">This ordering applies to the 7-column inner-corner pattern shown here.</text>
</svg>