# WaveFront *.obj file (generated by Autodesk ATF)

mtllib hill2.mtl

g Solid3

v 0.000000 -50.000000 -0.010000
v 0.000000 -50.000000 0.000000
v 0.000000 50.000000 -0.010000
v 0.000000 50.000000 0.000000
v 50.000000 -50.000000 0.000000
v 50.000000 50.000000 0.000000
v 50.303843 -50.000000 3.472964
v 50.303843 50.000000 3.472964
v 51.206147 -50.000000 6.840403
v 51.206147 50.000000 6.840403
v 52.679492 -50.000000 10.000000
v 52.679492 50.000000 10.000000
v 54.679111 -50.000000 12.855752
v 54.679111 50.000000 12.855752
v 57.144248 -50.000000 15.320889
v 57.144248 50.000000 15.320889
v 60.000000 -50.000000 17.320508
v 60.000000 50.000000 17.320508
v 63.159595 -50.000000 18.793853
v 63.159595 50.000000 18.793853
v 66.527036 -50.000000 19.696155
v 66.527036 50.000000 19.696155
v 70.000000 -50.000000 20.000000
v 70.000000 50.000000 20.000000
v 73.472964 -50.000000 19.696155
v 73.472964 50.000000 19.696155
v 76.840405 -50.000000 18.793853
v 76.840405 50.000000 18.793853
v 80.000000 -50.000000 17.320508
v 80.000000 50.000000 17.320508
v 82.855752 -50.000000 15.320889
v 82.855752 50.000000 15.320889
v 85.320889 -50.000000 12.855752
v 85.320889 50.000000 12.855752
v 87.320508 -50.000000 10.000000
v 87.320508 50.000000 10.000000
v 88.793848 -50.000000 6.840403
v 88.793848 50.000000 6.840403
v 89.696152 -50.000000 3.472964
v 89.696152 50.000000 3.472964
v 90.000000 -50.000000 0.000000
v 90.000000 50.000000 0.000000
v 130.000000 -50.000000 -0.010000
v 130.000000 -50.000000 0.000000
v 130.000000 50.000000 -0.010000
v 130.000000 50.000000 0.000000
vt 2500.000000 5000.000000 0.000000
vt 2500.000000 -5000.000000 0.000000
vt 6500.000000 -5000.000000 0.000000
vt 6500.000000 5000.000000 0.000000
vt 0.000000 0.000000 0.000000
vt 10000.000000 0.000000 0.000000
vt 10000.000000 1.000000 0.000000
vt 0.000000 1.000000 0.000000
vt 0.000000 0.000000 0.000000
vt 10000.000000 0.000000 0.000000
vt 10000.000000 1.000000 0.000000
vt 0.000000 1.000000 0.000000
vt -6500.000000 -5000.000000 0.000000
vt 6500.000000 -5000.000000 0.000000
vt 6500.000000 5000.000000 0.000000
vt -6500.000000 5000.000000 0.000000
vt -1500.000000 -5000.000000 0.000000
vt -1500.000000 5000.000000 0.000000
vt -6500.000000 5000.000000 0.000000
vt -6500.000000 -5000.000000 0.000000
vt -0.000000 -6283.185547 0.000000
vt -0.000000 -5934.119141 0.000000
vt -0.000000 -5585.053223 0.000000
vt -0.000000 -5235.987793 0.000000
vt -0.000000 -4886.921875 0.000000
vt -0.000000 -4537.855957 0.000000
vt -0.000000 -4188.790527 0.000000
vt -0.000000 -3839.724365 0.000000
vt -0.000000 -3490.658447 0.000000
vt -0.000000 -3141.592773 0.000000
vt -0.000000 -2792.526611 0.000000
vt -0.000000 -2443.460938 0.000000
vt -0.000000 -2094.395264 0.000000
vt -0.000000 -1745.329224 0.000000
vt -0.000000 -1396.263306 0.000000
vt -0.000000 -1047.197632 0.000000
vt -0.000000 -698.131653 0.000000
vt -0.000000 -349.065826 0.000000
vt -0.000000 0.000000 0.000000
vt -10000.000000 0.000000 0.000000
vt -10000.000000 -349.065826 0.000000
vt -10000.000000 -698.131653 0.000000
vt -10000.000000 -1047.197632 0.000000
vt -10000.000000 -1396.263306 0.000000
vt -10000.000000 -1745.329224 0.000000
vt -10000.000000 -2094.395264 0.000000
vt -10000.000000 -2443.460938 0.000000
vt -10000.000000 -2792.526611 0.000000
vt -10000.000000 -3141.592773 0.000000
vt -10000.000000 -3490.658447 0.000000
vt -10000.000000 -3839.724365 0.000000
vt -10000.000000 -4188.790527 0.000000
vt -10000.000000 -4537.855957 0.000000
vt -10000.000000 -4886.921875 0.000000
vt -10000.000000 -5235.987793 0.000000
vt -10000.000000 -5585.053223 0.000000
vt -10000.000000 -5934.119141 0.000000
vt -10000.000000 -6283.185547 0.000000
vt -1000.000000 -2000.000000 0.000000
vt -652.703674 -1969.615479 0.000000
vt -315.959717 -1879.385254 0.000000
vt 0.000000 -1732.050781 0.000000
vt 285.575226 -1532.088867 0.000000
vt 532.088867 -1285.575195 0.000000
vt 732.050781 -1000.000000 0.000000
vt 879.385254 -684.040283 0.000000
vt 969.615479 -347.296356 0.000000
vt 1000.000000 0.000000 0.000000
vt 969.615479 347.296356 0.000000
vt 879.385254 684.040283 0.000000
vt 732.050781 1000.000000 0.000000
vt 532.088867 1285.575195 0.000000
vt 285.575226 1532.088867 0.000000
vt 0.000000 1732.050781 0.000000
vt -315.959717 1879.385254 0.000000
vt -652.703674 1969.615479 0.000000
vt -1000.000000 2000.000000 0.000000
vt -1000.000000 6000.000000 0.000000
vt -1001.000000 6000.000000 0.000000
vt -1001.000000 -7000.000000 0.000000
vt -1000.000000 -7000.000000 0.000000
vt 1000.000000 2000.000000 0.000000
vt 652.703674 1969.615479 0.000000
vt 315.959717 1879.385254 0.000000
vt -0.000000 1732.050781 0.000000
vt -285.575226 1532.088867 0.000000
vt -532.088867 1285.575195 0.000000
vt -732.050781 1000.000000 0.000000
vt -879.385254 684.040283 0.000000
vt -969.615479 347.296356 0.000000
vt -1000.000000 0.000000 0.000000
vt -969.615479 -347.296356 0.000000
vt -879.385254 -684.040283 0.000000
vt -732.050781 -1000.000000 0.000000
vt -532.088867 -1285.575195 0.000000
vt -285.575226 -1532.088867 0.000000
vt -0.000000 -1732.050781 0.000000
vt 315.959717 -1879.385254 0.000000
vt 652.703674 -1969.615479 0.000000
vt 1000.000000 -2000.000000 0.000000
vt 1000.000000 -7000.000000 0.000000
vt 1001.000000 -7000.000000 0.000000
vt 1001.000000 6000.000000 0.000000
vt 1000.000000 6000.000000 0.000000
vn 0.000000 0.000000 100.000000
vn 0.000000 0.000000 100.000000
vn 0.000000 0.000000 100.000000
vn 0.000000 0.000000 100.000000
vn 100.000000 0.000000 0.000000
vn 100.000000 0.000000 0.000000
vn 100.000000 0.000000 0.000000
vn 100.000000 0.000000 0.000000
vn -100.000000 0.000000 0.000000
vn -100.000000 0.000000 0.000000
vn -100.000000 0.000000 0.000000
vn -100.000000 0.000000 0.000000
vn 0.000000 0.000000 -100.000000
vn 0.000000 0.000000 -100.000000
vn 0.000000 0.000000 -100.000000
vn 0.000000 0.000000 -100.000000
vn 0.000000 0.000000 100.000000
vn 0.000000 0.000000 100.000000
vn 0.000000 0.000000 100.000000
vn 0.000000 0.000000 100.000000
vn 100.000000 0.000000 0.000000
vn 98.480773 0.000000 17.364818
vn 93.969262 0.000000 34.202015
vn 86.602539 0.000000 50.000000
vn 76.604444 0.000000 64.278764
vn 64.278764 0.000000 76.604444
vn 50.000000 0.000000 86.602539
vn 34.202015 0.000000 93.969262
vn 17.364818 0.000000 98.480773
vn 0.000000 0.000000 100.000000
vn -17.364818 0.000000 98.480773
vn -34.202015 0.000000 93.969262
vn -50.000000 0.000000 86.602539
vn -64.278764 0.000000 76.604444
vn -76.604444 0.000000 64.278764
vn -86.602539 0.000000 50.000000
vn -93.969262 0.000000 34.202015
vn -98.480773 0.000000 17.364818
vn -100.000000 0.000000 0.000000
vn -100.000000 0.000000 0.000000
vn -98.480773 0.000000 17.364818
vn -93.969262 0.000000 34.202015
vn -86.602539 0.000000 50.000000
vn -76.604444 0.000000 64.278764
vn -64.278764 0.000000 76.604444
vn -50.000000 0.000000 86.602539
vn -34.202015 0.000000 93.969262
vn -17.364818 0.000000 98.480773
vn 0.000000 0.000000 100.000000
vn 17.364818 0.000000 98.480773
vn 34.202015 0.000000 93.969262
vn 50.000000 0.000000 86.602539
vn 64.278764 0.000000 76.604444
vn 76.604444 0.000000 64.278764
vn 86.602539 0.000000 50.000000
vn 93.969262 0.000000 34.202015
vn 98.480773 0.000000 17.364818
vn 100.000000 0.000000 0.000000
vn 0.000000 100.000000 0.000000
vn 0.000000 100.000000 0.000000
vn 0.000000 100.000000 0.000000
vn 0.000000 100.000000 0.000000
vn 0.000000 100.000000 0.000000
vn 0.000000 100.000000 0.000000
vn 0.000000 100.000000 0.000000
vn 0.000000 100.000000 0.000000
vn 0.000000 100.000000 0.000000
vn 0.000000 100.000000 0.000000
vn 0.000000 100.000000 0.000000
vn 0.000000 100.000000 0.000000
vn 0.000000 100.000000 0.000000
vn 0.000000 100.000000 0.000000
vn 0.000000 100.000000 0.000000
vn 0.000000 100.000000 0.000000
vn 0.000000 100.000000 0.000000
vn 0.000000 100.000000 0.000000
vn 0.000000 100.000000 0.000000
vn 0.000000 100.000000 0.000000
vn 0.000000 100.000000 0.000000
vn 0.000000 100.000000 0.000000
vn 0.000000 100.000000 0.000000
vn 0.000000 -100.000000 0.000000
vn 0.000000 -100.000000 0.000000
vn 0.000000 -100.000000 0.000000
vn 0.000000 -100.000000 0.000000
vn 0.000000 -100.000000 0.000000
vn 0.000000 -100.000000 0.000000
vn 0.000000 -100.000000 0.000000
vn 0.000000 -100.000000 0.000000
vn 0.000000 -100.000000 0.000000
vn 0.000000 -100.000000 0.000000
vn 0.000000 -100.000000 0.000000
vn 0.000000 -100.000000 0.000000
vn 0.000000 -100.000000 0.000000
vn 0.000000 -100.000000 0.000000
vn 0.000000 -100.000000 0.000000
vn 0.000000 -100.000000 0.000000
vn 0.000000 -100.000000 0.000000
vn 0.000000 -100.000000 0.000000
vn 0.000000 -100.000000 0.000000
vn 0.000000 -100.000000 0.000000
vn 0.000000 -100.000000 0.000000
vn 0.000000 -100.000000 0.000000
vn 0.000000 -100.000000 0.000000
usemtl 191,191,191
f 41/2/2 44/3/3 42/1/1
f 42/1/1 44/3/3 46/4/4
f 46/5/5 44/6/6 45/8/8
f 45/8/8 44/6/6 43/7/7
f 2/9/9 4/10/10 1/12/12
f 1/12/12 4/10/10 3/11/11
f 43/13/13 1/14/14 45/16/16
f 45/16/16 1/14/14 3/15/15
f 6/18/18 4/19/19 5/17/17
f 5/17/17 4/19/19 2/20/20
f 41/58/58 42/21/21 39/57/57
f 39/57/57 42/21/21 40/22/22
f 39/57/57 40/22/22 38/23/23
f 39/57/57 38/23/23 37/56/56
f 37/56/56 38/23/23 36/24/24
f 37/56/56 36/24/24 35/55/55
f 35/55/55 36/24/24 34/25/25
f 35/55/55 34/25/25 33/54/54
f 33/54/54 34/25/25 32/26/26
f 33/54/54 32/26/26 31/53/53
f 31/53/53 32/26/26 30/27/27
f 31/53/53 30/27/27 29/52/52
f 29/52/52 30/27/27 28/28/28
f 29/52/52 28/28/28 27/51/51
f 27/51/51 28/28/28 26/29/29
f 27/51/51 26/29/29 25/50/50
f 25/50/50 26/29/29 24/30/30
f 25/50/50 24/30/30 23/49/49
f 23/49/49 24/30/30 22/31/31
f 23/49/49 22/31/31 21/48/48
f 21/48/48 22/31/31 20/32/32
f 21/48/48 20/32/32 19/47/47
f 19/47/47 20/32/32 18/33/33
f 19/47/47 18/33/33 17/46/46
f 17/46/46 18/33/33 16/34/34
f 17/46/46 16/34/34 15/45/45
f 15/45/45 16/34/34 14/35/35
f 15/45/45 14/35/35 13/44/44
f 13/44/44 14/35/35 12/36/36
f 13/44/44 12/36/36 11/43/43
f 11/43/43 12/36/36 10/37/37
f 11/43/43 10/37/37 9/42/42
f 9/42/42 10/37/37 8/38/38
f 9/42/42 8/38/38 7/41/41
f 7/41/41 8/38/38 6/39/39
f 7/41/41 6/39/39 5/40/40
f 8/60/60 40/76/76 6/59/59
f 6/59/59 40/76/76 42/77/77
f 6/59/59 42/77/77 45/79/79
f 45/79/79 42/77/77 46/78/78
f 8/60/60 10/61/61 40/76/76
f 40/76/76 10/61/61 38/75/75
f 38/75/75 10/61/61 12/62/62
f 38/75/75 12/62/62 36/74/74
f 36/74/74 12/62/62 14/63/63
f 36/74/74 14/63/63 34/73/73
f 34/73/73 14/63/63 16/64/64
f 34/73/73 16/64/64 32/72/72
f 32/72/72 16/64/64 18/65/65
f 32/72/72 18/65/65 30/71/71
f 30/71/71 18/65/65 20/66/66
f 30/71/71 20/66/66 28/70/70
f 28/70/70 20/66/66 22/67/67
f 28/70/70 22/67/67 26/69/69
f 26/69/69 22/67/67 24/68/68
f 45/79/79 3/80/80 6/59/59
f 6/59/59 3/80/80 4/81/81
f 39/83/83 5/100/100 41/82/82
f 41/82/82 5/100/100 43/103/103
f 41/82/82 43/103/103 44/104/104
f 37/84/84 9/98/98 39/83/83
f 39/83/83 9/98/98 7/99/99
f 39/83/83 7/99/99 5/100/100
f 9/98/98 37/84/84 11/97/97
f 11/97/97 37/84/84 35/85/85
f 11/97/97 35/85/85 13/96/96
f 13/96/96 35/85/85 33/86/86
f 13/96/96 33/86/86 15/95/95
f 15/95/95 33/86/86 31/87/87
f 15/95/95 31/87/87 17/94/94
f 17/94/94 31/87/87 29/88/88
f 17/94/94 29/88/88 19/93/93
f 19/93/93 29/88/88 27/89/89
f 19/93/93 27/89/89 21/92/92
f 21/92/92 27/89/89 25/90/90
f 21/92/92 25/90/90 23/91/91
f 2/101/101 1/102/102 5/100/100
f 5/100/100 1/102/102 43/103/103

# 46 vertices
# 104 texture params
# 104 normals
# 88 facets

# 1 groups
