# WaveFront *.obj file (generated by Autodesk ATF)

mtllib hill_gzb_210210_50m.mtl

g Solid3

v -50.000000 -150.000000 -0.010000
v -50.000000 -150.000000 0.000000
v -50.000000 50.000000 -0.010000
v -50.000000 50.000000 0.000000
v 20.000000 -150.000000 0.000000
v 20.000000 50.000000 0.000000
v 20.615583 -150.000000 7.821723
v 20.615583 50.000000 7.821723
v 22.447175 -150.000000 15.450850
v 22.447175 50.000000 15.450850
v 25.449673 -150.000000 22.699524
v 25.449673 50.000000 22.699524
v 29.549150 -150.000000 29.389263
v 29.549150 50.000000 29.389263
v 34.644661 -150.000000 35.355339
v 34.644661 50.000000 35.355339
v 40.610737 -150.000000 40.450850
v 40.610737 50.000000 40.450850
v 47.300474 -150.000000 44.550327
v 47.300474 50.000000 44.550327
v 54.549150 -150.000000 47.552827
v 54.549150 50.000000 47.552827
v 62.178276 -150.000000 49.384419
v 62.178276 50.000000 49.384419
v 70.000000 -150.000000 50.000000
v 70.000000 50.000000 50.000000
v 77.821724 -150.000000 49.384419
v 77.821724 50.000000 49.384419
v 85.450850 -150.000000 47.552827
v 85.450850 50.000000 47.552827
v 92.699521 -150.000000 44.550327
v 92.699521 50.000000 44.550327
v 99.389258 -150.000000 40.450850
v 99.389258 50.000000 40.450850
v 105.355342 -150.000000 35.355339
v 105.355342 50.000000 35.355339
v 110.450850 -150.000000 29.389263
v 110.450850 50.000000 29.389263
v 114.550322 -150.000000 22.699524
v 114.550322 50.000000 22.699524
v 117.552822 -150.000000 15.450850
v 117.552822 50.000000 15.450850
v 119.384414 -150.000000 7.821723
v 119.384414 50.000000 7.821723
v 120.000000 -150.000000 0.000000
v 120.000000 50.000000 0.000000
v 190.000000 -150.000000 -0.010000
v 190.000000 -150.000000 0.000000
v 190.000000 50.000000 -0.010000
v 190.000000 50.000000 0.000000
vt 0.000000 0.000000 0.000000
vt 20000.000000 0.000000 0.000000
vt 20000.000000 1.000000 0.000000
vt 0.000000 1.000000 0.000000
vt 0.000000 0.000000 0.000000
vt 7000.000000 0.000000 0.000000
vt 7061.558105 -782.172302 0.000000
vt 7244.717285 -1545.084961 0.000000
vt 7544.967285 -2269.952393 0.000000
vt 7954.915039 -2938.926270 0.000000
vt 8464.465820 -3535.533936 0.000000
vt 9061.074219 -4045.084961 0.000000
vt 9730.047852 -4455.032715 0.000000
vt 10454.915039 -4755.282715 0.000000
vt 11217.828125 -4938.441895 0.000000
vt 12000.000000 -5000.000000 0.000000
vt 12782.171875 -4938.441895 0.000000
vt 13545.084961 -4755.282715 0.000000
vt 14269.952148 -4455.032715 0.000000
vt 14938.925781 -4045.084961 0.000000
vt 15535.534180 -3535.533936 0.000000
vt 16045.084961 -2938.926270 0.000000
vt 16455.033203 -2269.952393 0.000000
vt 16755.283203 -1545.084961 0.000000
vt 16938.441406 -782.172302 0.000000
vt 17000.000000 0.000000 0.000000
vt 24000.000000 0.000000 0.000000
vt 24000.000000 1.000000 0.000000
vt 0.000000 1.000000 0.000000
vt 0.000000 0.000000 0.000000
vt 20000.000000 0.000000 0.000000
vt 20000.000000 1.000000 0.000000
vt 0.000000 1.000000 0.000000
vt 0.000000 0.000000 0.000000
vt 7000.000000 0.000000 0.000000
vt 7061.558105 -782.172302 0.000000
vt 7244.717285 -1545.084961 0.000000
vt 7544.967285 -2269.952393 0.000000
vt 7954.915039 -2938.926270 0.000000
vt 8464.465820 -3535.533936 0.000000
vt 9061.074219 -4045.084961 0.000000
vt 9730.047852 -4455.032715 0.000000
vt 10454.915039 -4755.282715 0.000000
vt 11217.828125 -4938.441895 0.000000
vt 12000.000000 -5000.000000 0.000000
vt 12782.171875 -4938.441895 0.000000
vt 13545.084961 -4755.282715 0.000000
vt 14269.952148 -4455.032715 0.000000
vt 14938.925781 -4045.084961 0.000000
vt 15535.534180 -3535.533936 0.000000
vt 16045.084961 -2938.926270 0.000000
vt 16455.033203 -2269.952393 0.000000
vt 16755.283203 -1545.084961 0.000000
vt 16938.441406 -782.172302 0.000000
vt 17000.000000 0.000000 0.000000
vt 24000.000000 0.000000 0.000000
vt 24000.000000 1.000000 0.000000
vt 0.000000 1.000000 0.000000
vt 12000.000000 10000.000000 0.000000
vt -12000.000000 10000.000000 0.000000
vt -12000.000000 -10000.000000 0.000000
vt 12000.000000 -10000.000000 0.000000
vt -5000.000000 -10000.000000 0.000000
vt -5000.000000 10000.000000 0.000000
vt -12000.000000 10000.000000 0.000000
vt -12000.000000 -10000.000000 0.000000
vt -0.000000 0.000000 0.000000
vt -0.000000 785.398193 0.000000
vt -0.000000 1570.796387 0.000000
vt -0.000000 2356.194580 0.000000
vt -0.000000 3141.592773 0.000000
vt -0.000000 3926.990967 0.000000
vt -0.000000 4712.389160 0.000000
vt -0.000000 5497.787109 0.000000
vt -0.000000 6283.185547 0.000000
vt -0.000000 7068.583496 0.000000
vt -0.000000 7853.981934 0.000000
vt -0.000000 8639.379883 0.000000
vt -0.000000 9424.778320 0.000000
vt -0.000000 10210.176758 0.000000
vt -0.000000 10995.574219 0.000000
vt -0.000000 11780.972656 0.000000
vt -0.000000 12566.371094 0.000000
vt -0.000000 13351.768555 0.000000
vt -0.000000 14137.166992 0.000000
vt -0.000000 14922.565430 0.000000
vt -0.000000 15707.963867 0.000000
vt -20000.000000 15707.963867 0.000000
vt -20000.000000 14922.565430 0.000000
vt -20000.000000 14137.166992 0.000000
vt -20000.000000 13351.768555 0.000000
vt -20000.000000 12566.371094 0.000000
vt -20000.000000 11780.972656 0.000000
vt -20000.000000 10995.574219 0.000000
vt -20000.000000 10210.176758 0.000000
vt -20000.000000 9424.778320 0.000000
vt -20000.000000 8639.379883 0.000000
vt -20000.000000 7853.981934 0.000000
vt -20000.000000 7068.583496 0.000000
vt -20000.000000 6283.185547 0.000000
vt -20000.000000 5497.787109 0.000000
vt -20000.000000 4712.389160 0.000000
vt -20000.000000 3926.990967 0.000000
vt -20000.000000 3141.592773 0.000000
vt -20000.000000 2356.194580 0.000000
vt -20000.000000 1570.796387 0.000000
vt -20000.000000 785.398193 0.000000
vt -20000.000000 0.000000 0.000000
vt 5000.000000 10000.000000 0.000000
vt 5000.000000 -10000.000000 0.000000
vt 12000.000000 -10000.000000 0.000000
vt 12000.000000 10000.000000 0.000000
vn -100.000000 0.000000 0.000000
vn -100.000000 0.000000 0.000000
vn -100.000000 0.000000 0.000000
vn -100.000000 0.000000 0.000000
vn 0.000000 -100.000000 0.000000
vn 0.000000 -100.000000 0.000000
vn 0.000000 -100.000000 0.000000
vn 0.000000 -100.000000 0.000000
vn 0.000000 -100.000000 0.000000
vn 0.000000 -100.000000 0.000000
vn 0.000000 -100.000000 0.000000
vn 0.000000 -100.000000 0.000000
vn 0.000000 -100.000000 0.000000
vn 0.000000 -100.000000 0.000000
vn 0.000000 -100.000000 0.000000
vn 0.000000 -100.000000 0.000000
vn 0.000000 -100.000000 0.000000
vn 0.000000 -100.000000 0.000000
vn 0.000000 -100.000000 0.000000
vn 0.000000 -100.000000 0.000000
vn 0.000000 -100.000000 0.000000
vn 0.000000 -100.000000 0.000000
vn 0.000000 -100.000000 0.000000
vn 0.000000 -100.000000 0.000000
vn 0.000000 -100.000000 0.000000
vn 0.000000 -100.000000 0.000000
vn 0.000000 -100.000000 0.000000
vn 0.000000 -100.000000 0.000000
vn 0.000000 -100.000000 0.000000
vn 100.000000 0.000000 0.000000
vn 100.000000 0.000000 0.000000
vn 100.000000 0.000000 0.000000
vn 100.000000 0.000000 0.000000
vn 0.000000 100.000000 0.000000
vn 0.000000 100.000000 0.000000
vn 0.000000 100.000000 0.000000
vn 0.000000 100.000000 0.000000
vn 0.000000 100.000000 0.000000
vn 0.000000 100.000000 0.000000
vn 0.000000 100.000000 0.000000
vn 0.000000 100.000000 0.000000
vn 0.000000 100.000000 0.000000
vn 0.000000 100.000000 0.000000
vn 0.000000 100.000000 0.000000
vn 0.000000 100.000000 0.000000
vn 0.000000 100.000000 0.000000
vn 0.000000 100.000000 0.000000
vn 0.000000 100.000000 0.000000
vn 0.000000 100.000000 0.000000
vn 0.000000 100.000000 0.000000
vn 0.000000 100.000000 0.000000
vn 0.000000 100.000000 0.000000
vn 0.000000 100.000000 0.000000
vn 0.000000 100.000000 0.000000
vn 0.000000 100.000000 0.000000
vn 0.000000 100.000000 0.000000
vn 0.000000 100.000000 0.000000
vn 0.000000 100.000000 0.000000
vn 0.000000 0.000000 -100.000000
vn 0.000000 0.000000 -100.000000
vn 0.000000 0.000000 -100.000000
vn 0.000000 0.000000 -100.000000
vn 0.000000 0.000000 100.000000
vn 0.000000 0.000000 100.000000
vn 0.000000 0.000000 100.000000
vn 0.000000 0.000000 100.000000
vn 100.000000 0.000000 0.000000
vn 98.768836 0.000000 15.643446
vn 95.105654 0.000000 30.901700
vn 89.100653 0.000000 45.399049
vn 80.901700 0.000000 58.778524
vn 70.710677 0.000000 70.710677
vn 58.778524 0.000000 80.901700
vn 45.399049 0.000000 89.100653
vn 30.901700 0.000000 95.105654
vn 15.643446 0.000000 98.768836
vn 0.000000 0.000000 100.000000
vn -15.643446 0.000000 98.768836
vn -30.901700 0.000000 95.105654
vn -45.399049 0.000000 89.100653
vn -58.778524 0.000000 80.901700
vn -70.710677 0.000000 70.710677
vn -80.901700 0.000000 58.778524
vn -89.100653 0.000000 45.399049
vn -95.105654 0.000000 30.901700
vn -98.768836 0.000000 15.643446
vn -100.000000 0.000000 0.000000
vn -100.000000 0.000000 0.000000
vn -98.768836 0.000000 15.643446
vn -95.105654 0.000000 30.901700
vn -89.100653 0.000000 45.399049
vn -80.901700 0.000000 58.778524
vn -70.710677 0.000000 70.710677
vn -58.778524 0.000000 80.901700
vn -45.399049 0.000000 89.100653
vn -30.901700 0.000000 95.105654
vn -15.643446 0.000000 98.768836
vn 0.000000 0.000000 100.000000
vn 15.643446 0.000000 98.768836
vn 30.901700 0.000000 95.105654
vn 45.399049 0.000000 89.100653
vn 58.778524 0.000000 80.901700
vn 70.710677 0.000000 70.710677
vn 80.901700 0.000000 58.778524
vn 89.100653 0.000000 45.399049
vn 95.105654 0.000000 30.901700
vn 98.768836 0.000000 15.643446
vn 100.000000 0.000000 0.000000
vn 0.000000 0.000000 100.000000
vn 0.000000 0.000000 100.000000
vn 0.000000 0.000000 100.000000
vn 0.000000 0.000000 100.000000
usemtl 191,191,191
f 2/1/1 4/2/2 1/4/4
f 1/4/4 4/2/2 3/3/3
f 48/5/5 45/6/6 47/29/29
f 47/29/29 45/6/6 5/26/26
f 47/29/29 5/26/26 1/28/28
f 1/28/28 5/26/26 2/27/27
f 5/26/26 45/6/6 7/25/25
f 7/25/25 45/6/6 43/7/7
f 7/25/25 43/7/7 9/24/24
f 9/24/24 43/7/7 41/8/8
f 9/24/24 41/8/8 11/23/23
f 11/23/23 41/8/8 39/9/9
f 11/23/23 39/9/9 13/22/22
f 13/22/22 39/9/9 37/10/10
f 13/22/22 37/10/10 15/21/21
f 15/21/21 37/10/10 35/11/11
f 15/21/21 35/11/11 17/20/20
f 17/20/20 35/11/11 33/12/12
f 17/20/20 33/12/12 19/19/19
f 19/19/19 33/12/12 31/13/13
f 19/19/19 31/13/13 21/18/18
f 21/18/18 31/13/13 29/14/14
f 21/18/18 29/14/14 23/17/17
f 23/17/17 29/14/14 27/15/15
f 23/17/17 27/15/15 25/16/16
f 50/30/30 48/31/31 49/33/33
f 49/33/33 48/31/31 47/32/32
f 4/34/34 6/35/35 3/58/58
f 3/58/58 6/35/35 46/55/55
f 3/58/58 46/55/55 49/57/57
f 49/57/57 46/55/55 50/56/56
f 46/55/55 6/35/35 44/54/54
f 44/54/54 6/35/35 8/36/36
f 44/54/54 8/36/36 42/53/53
f 42/53/53 8/36/36 10/37/37
f 42/53/53 10/37/37 40/52/52
f 40/52/52 10/37/37 12/38/38
f 40/52/52 12/38/38 38/51/51
f 38/51/51 12/38/38 14/39/39
f 38/51/51 14/39/39 36/50/50
f 36/50/50 14/39/39 16/40/40
f 36/50/50 16/40/40 34/49/49
f 34/49/49 16/40/40 18/41/41
f 34/49/49 18/41/41 32/48/48
f 32/48/48 18/41/41 20/42/42
f 32/48/48 20/42/42 30/47/47
f 30/47/47 20/42/42 22/43/43
f 30/47/47 22/43/43 28/46/46
f 28/46/46 22/43/43 24/44/44
f 28/46/46 24/44/44 26/45/45
f 3/59/59 49/60/60 1/62/62
f 1/62/62 49/60/60 47/61/61
f 6/64/64 4/65/65 5/63/63
f 5/63/63 4/65/65 2/66/66
f 45/108/108 46/67/67 43/107/107
f 43/107/107 46/67/67 44/68/68
f 43/107/107 44/68/68 41/106/106
f 41/106/106 44/68/68 42/69/69
f 41/106/106 42/69/69 39/105/105
f 39/105/105 42/69/69 40/70/70
f 39/105/105 40/70/70 37/104/104
f 37/104/104 40/70/70 38/71/71
f 37/104/104 38/71/71 35/103/103
f 35/103/103 38/71/71 36/72/72
f 35/103/103 36/72/72 33/102/102
f 33/102/102 36/72/72 34/73/73
f 33/102/102 34/73/73 31/101/101
f 31/101/101 34/73/73 32/74/74
f 31/101/101 32/74/74 29/100/100
f 29/100/100 32/74/74 30/75/75
f 29/100/100 30/75/75 27/99/99
f 27/99/99 30/75/75 28/76/76
f 27/99/99 28/76/76 25/98/98
f 25/98/98 28/76/76 26/77/77
f 25/98/98 26/77/77 23/97/97
f 23/97/97 26/77/77 24/78/78
f 23/97/97 24/78/78 21/96/96
f 21/96/96 24/78/78 22/79/79
f 21/96/96 22/79/79 19/95/95
f 19/95/95 22/79/79 20/80/80
f 19/95/95 20/80/80 17/94/94
f 17/94/94 20/80/80 18/81/81
f 17/94/94 18/81/81 15/93/93
f 15/93/93 18/81/81 16/82/82
f 15/93/93 16/82/82 13/92/92
f 13/92/92 16/82/82 14/83/83
f 13/92/92 14/83/83 11/91/91
f 11/91/91 14/83/83 12/84/84
f 11/91/91 12/84/84 9/90/90
f 9/90/90 12/84/84 10/85/85
f 9/90/90 10/85/85 7/89/89
f 7/89/89 10/85/85 8/86/86
f 7/89/89 8/86/86 5/88/88
f 5/88/88 8/86/86 6/87/87
f 45/110/110 48/111/111 46/109/109
f 46/109/109 48/111/111 50/112/112

# 50 vertices
# 112 texture params
# 112 normals
# 96 facets

# 1 groups
